<svg width="238" height="30" viewBox="0 0 238 30" fill="none" xmlns="http://www.w3.org/2000/svg">
<path d="M0.0859375 29V0.445312H7.80078V22.7695H18.7969V29H0.0859375ZM40.3203 29H23.3672V0.445312H40.3203V6.63672H31.082V11.1289H39.6367V17.3203H31.082V22.7109H40.3203V29ZM57.918 29H50.2031V6.75391H43.2305V0.445312H64.8711V6.75391H57.918V29ZM75.1836 0.484375L75.4766 0.914062C75.2422 1.8776 74.9362 3.02995 74.5586 4.37109C74.181 5.69922 73.7708 7.03385 73.3281 8.375C72.8984 9.71615 72.4622 10.8815 72.0195 11.8711H66.5898C66.7852 10.9596 66.974 10.0091 67.1562 9.01953C67.3516 8.01693 67.5339 7.01432 67.7031 6.01172C67.8724 5.00911 68.0221 4.03906 68.1523 3.10156C68.2956 2.15104 68.4128 1.27865 68.5039 0.484375H75.1836ZM97.625 20.3281C97.625 21.8776 97.2344 23.349 96.4531 24.7422C95.6719 26.1224 94.4544 27.2422 92.8008 28.1016C91.1602 28.9609 89.0378 29.3906 86.4336 29.3906C85.1315 29.3906 83.9857 29.332 82.9961 29.2148C82.0195 29.0977 81.1081 28.9089 80.2617 28.6484C79.4154 28.375 78.5365 28.0234 77.625 27.5938V20.7188C79.1745 21.5 80.737 22.099 82.3125 22.5156C83.888 22.9193 85.3138 23.1211 86.5898 23.1211C87.3581 23.1211 87.9831 23.0299 88.4648 22.8477C88.9596 22.6654 89.3242 22.418 89.5586 22.1055C89.793 21.7799 89.9102 21.4089 89.9102 20.9922C89.9102 20.4974 89.7344 20.0807 89.3828 19.7422C89.0443 19.3906 88.4974 19.026 87.7422 18.6484C86.987 18.2708 85.9909 17.8021 84.7539 17.2422C83.6992 16.7474 82.7422 16.2396 81.8828 15.7188C81.0365 15.1979 80.3073 14.6055 79.6953 13.9414C79.0964 13.2643 78.6341 12.4766 78.3086 11.5781C77.9831 10.6797 77.8203 9.61849 77.8203 8.39453C77.8203 6.55859 78.2695 5.02214 79.168 3.78516C80.0794 2.53516 81.3424 1.59766 82.957 0.972656C84.5846 0.347656 86.4596 0.0351562 88.582 0.0351562C90.444 0.0351562 92.1172 0.24349 93.6016 0.660156C95.099 1.07682 96.4401 1.55208 97.625 2.08594L95.2617 8.04297C94.0378 7.48307 92.8333 7.04036 91.6484 6.71484C90.4635 6.3763 89.3633 6.20703 88.3477 6.20703C87.6836 6.20703 87.1367 6.29167 86.707 6.46094C86.2904 6.61719 85.9779 6.83203 85.7695 7.10547C85.5742 7.37891 85.4766 7.69141 85.4766 8.04297C85.4766 8.48568 85.6458 8.88281 85.9844 9.23438C86.3359 9.58594 86.9154 9.97005 87.7227 10.3867C88.543 10.7904 89.6562 11.3177 91.0625 11.9688C92.4557 12.5938 93.6406 13.2708 94.6172 14C95.5938 14.7161 96.3359 15.582 96.8438 16.5977C97.3646 17.6003 97.625 18.8438 97.625 20.3281Z" fill="#00A95A"/>
<path d="M112.43 0.445312H122.391C126.518 0.445312 129.461 1.05729 131.219 2.28125C132.977 3.50521 133.855 5.26302 133.855 7.55469C133.855 8.80469 133.628 9.86589 133.172 10.7383C132.729 11.6107 132.163 12.3008 131.473 12.8086C130.796 13.3164 130.099 13.6615 129.383 13.8438V14.0391C130.164 14.2344 130.939 14.5599 131.707 15.0156C132.488 15.4583 133.133 16.1289 133.641 17.0273C134.161 17.9128 134.422 19.1172 134.422 20.6406C134.422 22.3724 133.979 23.8633 133.094 25.1133C132.221 26.3633 130.971 27.3268 129.344 28.0039C127.716 28.668 125.783 29 123.543 29H112.43V0.445312ZM120.145 11.4023H122.469C123.745 11.4023 124.643 11.1419 125.164 10.6211C125.685 10.0872 125.945 9.44271 125.945 8.6875C125.945 7.90625 125.646 7.3138 125.047 6.91016C124.461 6.49349 123.549 6.28516 122.312 6.28516H120.145V11.4023ZM120.145 17.0469V23.043H122.859C124.201 23.043 125.138 22.7565 125.672 22.1836C126.206 21.5977 126.473 20.8685 126.473 19.9961C126.473 19.4883 126.355 19.013 126.121 18.5703C125.9 18.1146 125.516 17.75 124.969 17.4766C124.422 17.1901 123.667 17.0469 122.703 17.0469H120.145ZM166.102 14.6836C166.102 16.8841 165.835 18.8893 165.301 20.6992C164.78 22.4961 163.96 24.0456 162.84 25.3477C161.72 26.6497 160.281 27.6523 158.523 28.3555C156.766 29.0456 154.663 29.3906 152.215 29.3906C149.819 29.3906 147.742 29.0456 145.984 28.3555C144.24 27.6523 142.801 26.6562 141.668 25.3672C140.535 24.0651 139.695 22.5091 139.148 20.6992C138.602 18.8893 138.328 16.8711 138.328 14.6445C138.328 11.6758 138.816 9.09766 139.793 6.91016C140.783 4.70964 142.306 3.01042 144.363 1.8125C146.421 0.601562 149.051 -0.00390625 152.254 -0.00390625C155.509 -0.00390625 158.152 0.601562 160.184 1.8125C162.228 3.02344 163.725 4.72917 164.676 6.92969C165.626 9.13021 166.102 11.7148 166.102 14.6836ZM146.453 14.6836C146.453 16.4023 146.648 17.8802 147.039 19.1172C147.43 20.3542 148.048 21.3047 148.895 21.9688C149.741 22.6328 150.848 22.9648 152.215 22.9648C153.634 22.9648 154.76 22.6328 155.594 21.9688C156.44 21.3047 157.046 20.3542 157.41 19.1172C157.788 17.8802 157.977 16.4023 157.977 14.6836C157.977 12.1055 157.547 10.0677 156.688 8.57031C155.828 7.07292 154.35 6.32422 152.254 6.32422C150.861 6.32422 149.734 6.66276 148.875 7.33984C148.029 8.01693 147.41 8.98047 147.02 10.2305C146.642 11.4805 146.453 12.9648 146.453 14.6836ZM197.977 14.6836C197.977 16.8841 197.71 18.8893 197.176 20.6992C196.655 22.4961 195.835 24.0456 194.715 25.3477C193.595 26.6497 192.156 27.6523 190.398 28.3555C188.641 29.0456 186.538 29.3906 184.09 29.3906C181.694 29.3906 179.617 29.0456 177.859 28.3555C176.115 27.6523 174.676 26.6562 173.543 25.3672C172.41 24.0651 171.57 22.5091 171.023 20.6992C170.477 18.8893 170.203 16.8711 170.203 14.6445C170.203 11.6758 170.691 9.09766 171.668 6.91016C172.658 4.70964 174.181 3.01042 176.238 1.8125C178.296 0.601562 180.926 -0.00390625 184.129 -0.00390625C187.384 -0.00390625 190.027 0.601562 192.059 1.8125C194.103 3.02344 195.6 4.72917 196.551 6.92969C197.501 9.13021 197.977 11.7148 197.977 14.6836ZM178.328 14.6836C178.328 16.4023 178.523 17.8802 178.914 19.1172C179.305 20.3542 179.923 21.3047 180.77 21.9688C181.616 22.6328 182.723 22.9648 184.09 22.9648C185.509 22.9648 186.635 22.6328 187.469 21.9688C188.315 21.3047 188.921 20.3542 189.285 19.1172C189.663 17.8802 189.852 16.4023 189.852 14.6836C189.852 12.1055 189.422 10.0677 188.562 8.57031C187.703 7.07292 186.225 6.32422 184.129 6.32422C182.736 6.32422 181.609 6.66276 180.75 7.33984C179.904 8.01693 179.285 8.98047 178.895 10.2305C178.517 11.4805 178.328 12.9648 178.328 14.6836ZM227.527 29H218.816L213.172 18.082L210.887 19.4492V29H203.133V0.445312H210.887V12.8477C211.212 12.2227 211.583 11.5977 212 10.9727C212.43 10.3477 212.846 9.75521 213.25 9.19531L219.246 0.445312H227.684L218.68 13.2383L227.527 29ZM236.59 18.9219H230.145L229.148 0.445312H237.586L236.59 18.9219ZM229.227 25.7578C229.227 24.3776 229.63 23.4076 230.438 22.8477C231.258 22.2878 232.228 22.0078 233.348 22.0078C234.454 22.0078 235.405 22.2878 236.199 22.8477C236.993 23.4076 237.391 24.3776 237.391 25.7578C237.391 27.0729 236.993 28.0234 236.199 28.6094C235.405 29.1953 234.454 29.4883 233.348 29.4883C232.228 29.4883 231.258 29.1953 230.438 28.6094C229.63 28.0234 229.227 27.0729 229.227 25.7578Z" fill="white"/>
</svg>
